<svg width="40" height="40" viewBox="0 0 40 40" fill="none" xmlns="http://www.w3.org/2000/svg">
    <path
        d="M26.4868 5.53739C25.1135 3.40906 22.7213 2 20 2C17.2787 2 14.8865 3.40906 13.5132 5.53739C12.2904 4.40584 10.6546 3.71429 8.85714 3.71429C5.07005 3.71429 2 6.78433 2 10.5714C2 13.6795 4.06782 16.3046 6.90278 17.1461C7.57349 25.6503 8.3702 32.4324 8.771 35.616C8.91774 36.7819 9.84406 37.6733 11.0167 37.749C12.8049 37.8645 15.7993 38 20 38C24.2007 38 27.1951 37.8645 28.9833 37.749C30.1559 37.6733 31.0823 36.7819 31.229 35.616C31.6298 32.4324 32.4265 25.6503 33.0972 17.1461C35.9321 16.3046 38 13.6795 38 10.5714C38 6.78433 34.93 3.71429 31.1429 3.71429C29.3454 3.71429 27.7096 4.40584 26.4868 5.53739Z"
        stroke="black" stroke-width="3" stroke-linecap="round" stroke-linejoin="round" />
    <path
        d="M31.788 31.4536C29.5967 31.3396 25.929 31.2266 19.9999 31.2266C14.0708 31.2266 10.403 31.3396 8.21179 31.4536"
        stroke="black" stroke-width="3" stroke-linecap="round" stroke-linejoin="round" />
    <path d="M15.7143 17.4286L16.5714 24.2857" stroke="black" stroke-width="3"
        stroke-linecap="round" />
    <path d="M24.2857 17.4286L23.4286 24.2857" stroke="black" stroke-width="3"
        stroke-linecap="round" />
</svg>
    