<svg width="153" height="32" viewBox="0 0 153 32" fill="none" xmlns="http://www.w3.org/2000/svg">
    <path
        d="M28.0117 4.16406V5.35547C28.0117 6.56641 28.0573 7.77083 28.1484 8.96875C28.2396 10.1667 28.3698 11.3516 28.5391 12.5234L25.9023 13.0312C25.6159 10.9349 24.8151 9.34635 23.5 8.26562C22.1849 7.1849 20.401 6.64453 18.1484 6.64453C15.4922 6.64453 13.4219 7.50391 11.9375 9.22266C10.4661 10.9284 9.73047 13.3372 9.73047 16.4492C9.73047 19.8867 10.5378 22.5625 12.1523 24.4766C13.7669 26.3776 16.013 27.3281 18.8906 27.3281C20.7396 27.3281 22.3477 26.8594 23.7148 25.9219C25.0951 24.9844 26.2344 23.5846 27.1328 21.7227L29.5352 22.7969C28.9362 24.0339 28.4023 25.2383 27.9336 26.4102C27.4648 27.569 27.0547 28.7148 26.7031 29.8477C24.75 30.5117 23.0052 31 21.4688 31.3125C19.9453 31.638 18.5391 31.8008 17.25 31.8008C12.3021 31.8008 8.31771 30.4727 5.29688 27.8164C2.28906 25.1471 0.785156 21.638 0.785156 17.2891C0.785156 12.9141 2.43229 9.33984 5.72656 6.56641C9.02083 3.79297 13.2786 2.40625 18.5 2.40625C20.0885 2.40625 21.6706 2.54948 23.2461 2.83594C24.8216 3.1224 26.4102 3.5651 28.0117 4.16406ZM41 0.726562C40.8958 3.20052 40.8112 5.52474 40.7461 7.69922C40.694 9.86068 40.6615 11.8789 40.6484 13.7539C41.9896 12.7643 43.2396 12.0286 44.3984 11.5469C45.5703 11.0521 46.6771 10.8047 47.7188 10.8047C49.8802 10.8047 51.5078 11.4557 52.6016 12.7578C53.6953 14.0469 54.2422 15.9674 54.2422 18.5195C54.2422 19.0404 54.2161 20.1536 54.1641 21.8594C54.112 23.5521 54.0859 24.9844 54.0859 26.1562C54.0859 27.224 54.2552 27.9466 54.5938 28.3242C54.9323 28.6888 55.5768 28.8711 56.5273 28.8711H56.8789V31C54.9388 30.8828 53.5456 30.8112 52.6992 30.7852C51.8529 30.7461 51.1562 30.7266 50.6094 30.7266C49.8542 30.7266 48.0247 30.8112 45.1211 30.9805L44.9258 31V28.8711H45.1211C46.0326 28.8711 46.638 28.6107 46.9375 28.0898C47.25 27.556 47.4062 26.0065 47.4062 23.4414V21.3125C47.4062 18.9036 47.1654 17.3021 46.6836 16.5078C46.2148 15.7135 45.401 15.3164 44.2422 15.3164C43.8125 15.3164 43.3177 15.401 42.7578 15.5703C42.2109 15.7396 41.5469 16.013 40.7656 16.3906L40.6875 17.7969C40.6615 18.3828 40.6419 19.151 40.6289 20.1016C40.6159 21.0521 40.6094 22.0872 40.6094 23.207V25.5508C40.6094 26.9831 40.7591 27.8945 41.0586 28.2852C41.3711 28.6758 41.9635 28.8711 42.8359 28.8711H42.9727L42.9531 31C41.7682 30.9089 40.6549 30.8438 39.6133 30.8047C38.5716 30.7526 37.6341 30.7266 36.8008 30.7266C36.0456 30.7266 35.1602 30.7526 34.1445 30.8047C33.1289 30.8438 32.0156 30.9089 30.8047 31V28.8711H31.1562C31.7422 28.8711 32.2174 28.793 32.582 28.6367C32.9596 28.4674 33.2331 28.2135 33.4023 27.875C33.7148 27.1849 33.8841 23.5977 33.9102 17.1133C33.9102 16.1367 33.9167 15.3945 33.9297 14.8867L33.9688 9.88672V9.125C33.9688 7.06771 33.8255 5.79167 33.5391 5.29688C33.2526 4.80208 32.6992 4.55469 31.8789 4.55469C31.7357 4.55469 31.5794 4.5612 31.4102 4.57422C31.2539 4.57422 31.0781 4.58073 30.8828 4.59375V2.48438C32.5755 2.32812 34.2617 2.10677 35.9414 1.82031C37.6341 1.52083 39.3203 1.15625 41 0.726562ZM79.0664 21.4492H70.2773C69.4701 21.4492 68.7083 21.4688 67.9922 21.5078C67.276 21.5469 66.6185 21.6055 66.0195 21.6836C66.1888 23.4544 66.7747 24.8021 67.7773 25.7266C68.793 26.651 70.1992 27.1133 71.9961 27.1133C72.7904 27.1133 73.6758 26.9766 74.6523 26.7031C75.6289 26.4167 76.7422 25.9674 77.9922 25.3555L79.1055 27.7969C77.2695 29.1641 75.5182 30.1602 73.8516 30.7852C72.1979 31.4102 70.4987 31.7227 68.7539 31.7227C65.707 31.7227 63.2396 30.7917 61.3516 28.9297C59.4766 27.0677 58.5391 24.6393 58.5391 21.6445C58.5391 18.4805 59.5872 15.8568 61.6836 13.7734C63.793 11.6901 66.4297 10.6484 69.5938 10.6484C72.5104 10.6484 74.8151 11.5859 76.5078 13.4609C78.2135 15.3359 79.0664 17.888 79.0664 21.1172V21.4492ZM72.6602 18.3633C72.556 16.931 72.2044 15.8177 71.6055 15.0234C71.0065 14.2292 70.2383 13.832 69.3008 13.832C68.3112 13.832 67.5104 14.2682 66.8984 15.1406C66.2995 16 65.987 17.1784 65.9609 18.6758C67.5625 18.6758 68.8971 18.6497 69.9648 18.5977C71.0456 18.5456 71.944 18.4674 72.6602 18.3633ZM92.0547 11.2734L92.0156 12.2305C92.224 12.2305 92.5495 12.2435 92.9922 12.2695C93.4479 12.2826 93.7865 12.2891 94.0078 12.2891C94.5807 12.2891 95.1602 12.276 95.7461 12.25C96.332 12.224 96.9115 12.1979 97.4844 12.1719V15.3555C96.612 15.3034 95.7201 15.2643 94.8086 15.2383C93.9102 15.2122 92.9792 15.1992 92.0156 15.1992V18.4805V22.4062V24.8477C92.0156 26.6315 92.1979 27.7643 92.5625 28.2461C92.9271 28.7279 93.6497 28.9688 94.7305 28.9688C94.9258 28.9688 95.1341 28.9557 95.3555 28.9297C95.5898 28.9036 95.8242 28.8776 96.0586 28.8516L96.0391 31C94.4635 30.9089 93.0508 30.8438 91.8008 30.8047C90.5508 30.7526 89.5417 30.7266 88.7734 30.7266C87.9531 30.7266 86.9701 30.7526 85.8242 30.8047C84.6784 30.8438 83.4089 30.9089 82.0156 31V28.8516C82.1068 28.8516 82.2044 28.8581 82.3086 28.8711C82.4258 28.8711 82.582 28.8711 82.7773 28.8711C83.7018 28.8711 84.3333 28.6042 84.6719 28.0703C85.0104 27.5234 85.1797 26.2474 85.1797 24.2422V22.5625C85.1797 21.2344 85.1536 19.0273 85.1016 15.9414C85.1016 15.6289 85.0951 15.3945 85.082 15.2383H83.8516C83.5391 15.2383 83.2135 15.2448 82.875 15.2578C82.5365 15.2578 82.1849 15.2643 81.8203 15.2773V12.7969C82.4974 12.7839 83.0898 12.6536 83.5977 12.4062C84.1185 12.1589 84.5872 11.7682 85.0039 11.2344C85.082 8.21354 86.2214 5.73307 88.4219 3.79297C90.6224 1.85286 93.3763 0.882812 96.6836 0.882812C98.5586 0.882812 100.004 1.21484 101.02 1.87891C102.048 2.54297 102.562 3.47396 102.562 4.67188C102.562 5.40104 102.296 6.05208 101.762 6.625C101.241 7.19792 100.642 7.48438 99.9648 7.48438C99.3008 7.48438 98.4284 7.0026 97.3477 6.03906C96.2669 5.07552 95.3555 4.59375 94.6133 4.59375C93.7148 4.59375 93.0768 5.01042 92.6992 5.84375C92.3216 6.67708 92.1068 8.48698 92.0547 11.2734ZM104.184 23.0703L106.742 24.5938C107.445 25.0234 107.94 25.4531 108.227 25.8828C108.513 26.3125 108.656 26.8333 108.656 27.4453C108.656 27.9922 108.493 28.4935 108.168 28.9492C107.842 29.3919 107.315 29.8346 106.586 30.2773L104.223 31.7617L101.547 30.1602C100.883 29.7826 100.408 29.3854 100.121 28.9688C99.8346 28.5391 99.6914 28.0443 99.6914 27.4844C99.6914 26.8724 99.8542 26.3255 100.18 25.8438C100.505 25.349 100.987 24.9193 101.625 24.5547L104.184 23.0703Z"
        fill="black" />
    <path
        d="M121.781 10.9219C121.768 11.625 121.749 12.6341 121.723 13.9492C121.605 19.431 121.547 23.2331 121.547 25.3555C121.547 26.7357 121.716 27.6536 122.055 28.1094C122.406 28.5651 123.064 28.793 124.027 28.793C124.079 28.793 124.171 28.7865 124.301 28.7734C124.444 28.7604 124.555 28.7539 124.633 28.7539V31C122.706 30.8958 121.247 30.8242 120.258 30.7852C119.268 30.7461 118.402 30.7266 117.66 30.7266C117.022 30.7266 116.182 30.7526 115.141 30.8047C114.099 30.8438 112.927 30.9023 111.625 30.9805V28.7539C111.716 28.7539 111.827 28.7604 111.957 28.7734C112.087 28.7865 112.178 28.793 112.23 28.793C113.233 28.793 113.904 28.5651 114.242 28.1094C114.581 27.6406 114.75 26.4427 114.75 24.5156V23.168V18.832C114.75 16.931 114.594 15.7656 114.281 15.3359C113.969 14.8932 113.363 14.6719 112.465 14.6719C112.27 14.6719 112.113 14.6784 111.996 14.6914C111.892 14.6914 111.781 14.6979 111.664 14.7109L111.547 12.6016C113.383 12.4714 115.154 12.2695 116.859 11.9961C118.565 11.7096 120.206 11.3516 121.781 10.9219ZM117.992 0.121094L120.336 1.56641C121 1.94401 121.475 2.33464 121.762 2.73828C122.048 3.12891 122.191 3.59115 122.191 4.125C122.191 4.65885 122.068 5.12109 121.82 5.51172C121.573 5.88932 121.163 6.25391 120.59 6.60547L118.07 8.16797L115.707 6.87891C115.017 6.5013 114.516 6.09766 114.203 5.66797C113.904 5.23828 113.754 4.73698 113.754 4.16406C113.754 3.63021 113.891 3.15495 114.164 2.73828C114.438 2.32161 114.874 1.94401 115.473 1.60547L117.992 0.121094ZM135.961 10.6484L135.551 14.0078C136.996 12.9141 138.324 12.1068 139.535 11.5859C140.746 11.0651 141.898 10.8047 142.992 10.8047C145.154 10.8047 146.781 11.4557 147.875 12.7578C148.969 14.0469 149.516 15.9674 149.516 18.5195C149.516 19.0143 149.49 20.1146 149.438 21.8203C149.385 23.513 149.359 24.9583 149.359 26.1562C149.359 27.224 149.529 27.9466 149.867 28.3242C150.219 28.6888 150.876 28.8711 151.84 28.8711H152.191L152.152 31C150.811 30.9219 149.607 30.8633 148.539 30.8242C147.484 30.7852 146.599 30.7656 145.883 30.7656C145.297 30.7656 144.522 30.7852 143.559 30.8242C142.608 30.8633 141.488 30.9219 140.199 31V28.8711H140.395C141.306 28.8711 141.911 28.6107 142.211 28.0898C142.523 27.556 142.68 26.0065 142.68 23.4414V21.3125C142.68 18.9036 142.439 17.3021 141.957 16.5078C141.488 15.7135 140.674 15.3164 139.516 15.3164C139.086 15.3164 138.591 15.401 138.031 15.5703C137.484 15.7396 136.82 16.013 136.039 16.3906C135.974 17.1719 135.928 18.0573 135.902 19.0469C135.889 20.0234 135.883 21.6185 135.883 23.832V25.6094C135.883 27.0286 136.039 27.9271 136.352 28.3047C136.677 28.6823 137.309 28.8711 138.246 28.8711V31C137.191 30.9219 136.156 30.8633 135.141 30.8242C134.138 30.7852 133.116 30.7656 132.074 30.7656C131.124 30.7656 130.147 30.7852 129.145 30.8242C128.155 30.8633 127.133 30.9219 126.078 31V28.8711H126.547C128.227 28.8711 129.079 27.1263 129.105 23.6367C129.105 23.4414 129.112 23.2982 129.125 23.207L129.164 20.3945V17.9922C129.164 16.7552 129.001 15.9154 128.676 15.4727C128.363 15.0299 127.79 14.8086 126.957 14.8086C126.749 14.8086 126.579 14.8151 126.449 14.8281C126.319 14.8281 126.195 14.8281 126.078 14.8281V12.7188C127.654 12.5365 129.249 12.276 130.863 11.9375C132.491 11.5859 134.19 11.1562 135.961 10.6484Z"
        fill="#A24D52" />
</svg>
